# xmcd CD database file
#
# Track frame offsets:
#	150
#	19631
#	34175
#	53002
#	71019
#	85454
#	119312
#	134943
#	152903
#	166454
#	184999
#	201424
#	224280
#	247466
#	266170
#	286847
#	307689
#	330994
#
# Disc length: 4541 seconds
#
# Revision: 0
# Processed by: cddbd v1.5.1PL2 Copyright (c) Steve Scherf et al.
# Submitted via: CDex 1.51
#
DISCID=1611bb12
DTITLE=Jazz Lips - Hotter Than That - CD2
DYEAR=2005
DGENRE=Jazz
TTITLE0=Michigander Blues
TTITLE1=Ory's Creole Trombone
TTITLE2='Til We Meet Again
TTITLE3=Dans Le Rue d'Antibes
TTITLE4=Everybody Loves My Baby
TTITLE5=Basin Street Blues
TTITLE6=Shake It, Break It, Hang It On The Wall
TTITLE7=Merry Maker's Twine
TTITLE8=Mad Dog
TTITLE9=Black Bottom Stomp
TTITLE10=Sweet Mumtaz
TTITLE11=Buddy Bolden's Blues
TTITLE12=Cosy Cafe Blues
TTITLE13=Ha, Ha This A-Way
TTITLE14=Walking With The King
TTITLE15=Too Busy
TTITLE16=Dream Blues
TTITLE17=Algiers Strut
EXTD=YEAR: 2005
EXTT0=
EXTT1=
EXTT2=
EXTT3=
EXTT4=
EXTT5=
EXTT6=
EXTT7=
EXTT8=
EXTT9=
EXTT10=
EXTT11=
EXTT12=
EXTT13=
EXTT14=
EXTT15=
EXTT16=
EXTT17=
PLAYORDER=
